<?xml version="1.0" encoding="utf-8"?>
<!-- Generator: Adobe Illustrator 21.0.0, SVG Export Plug-In . SVG Version: 6.00 Build 0)  -->
<svg version="1.1" id="Camada_1" xmlns="http://www.w3.org/2000/svg" xmlns:xlink="http://www.w3.org/1999/xlink" x="0px" y="0px"
	 viewBox="0 0 283.5 283.5" style="enable-background:new 0 0 283.5 283.5;" xml:space="preserve">
<style type="text/css">
	.st0{fill:#DBA03B;}
</style>
<g id="Group_1256" transform="translate(-0.031)">
	<path id="Path_1031" class="st0" d="M149.1,133.9l48.5,52.6L144.9,235l-48.4-52.7L149.1,133.9 M149.8,121l-66.2,60.7l60.8,66.1
		l66.1-60.8L149.8,121L149.8,121z"/>
	<path id="Path_1032" class="st0" d="M93.5,73.3l48.5,52.6l-52.6,48.5l-48.5-52.6L93.5,73.3 M94.1,60.4l-66.2,60.8l60.8,66.1
		l66.1-60.8L94.1,60.4z"/>
	<path id="Path_1033" class="st0" d="M209.5,78.4l48.5,52.6l-52.7,48.5l-48.5-52.6L209.5,78.4 M210.1,65.6L144,126.4l60.8,66.1
		l66-60.7L210.1,65.6L210.1,65.6z"/>
	<path id="Path_1034" class="st0" d="M32.9,129l43,46.9c-1.4,1.1-2.8,2-4.3,2.8c-5.9,3-12.6,3.9-19.1,2.7c-7-1.4-13.3-5-18.2-10.4
		C22.9,159.5,22.4,141.3,32.9,129 M33.9,116.7c-2.1,1.2-3.9,2.6-5.7,4.3c-15.7,15.3-16,40.5-0.6,56.3c12.1,13.7,31.9,17.6,48.3,9.6
		c2.8-1.5,5.4-3.3,7.8-5.4c1.8-1.6,3.3-3.3,4.7-5.3L33.9,116.7z"/>
</g>
</svg>
