<svg xmlns="http://www.w3.org/2000/svg" viewBox="0 0 87.836 69.88">
  <defs>
    <style>
      .cls-1 {
        fill: #fff;
      }
    </style>
  </defs>
  <g id="fdba-logo" transform="translate(-163.197 -56.96)">
    <path id="Path_1072" data-name="Path 1072" class="cls-1" d="M189.093,243.99l6.844,25.5-25.5,6.844-6.844-25.5,25.5-6.844m2.379-4.09L159.5,248.481l8.581,31.973,31.973-8.581L191.473,239.9Z" transform="translate(21.787 -153.614)"/>
    <path id="Path_1073" data-name="Path 1073" class="cls-1" d="M159.694,134.29l6.844,25.5-25.5,6.844-6.844-25.5,25.5-6.844m2.379-4.09L130.1,138.781l8.581,31.973,31.973-8.581L162.073,130.2Z" transform="translate(43.328 -73.24)"/>
    <path id="Path_1074" data-name="Path 1074" class="cls-1" d="M298.293,214.69l6.844,25.5-25.5,6.844-6.844-25.5,25.5-6.844m2.379-4.09L268.7,219.181l8.581,31.973,31.973-8.581L300.673,210.6Z" transform="translate(-58.22 -132.147)"/>
    <path id="Path_1075" data-name="Path 1075" class="cls-1" d="M102.329,164.376l6.068,22.7a11.1,11.1,0,0,1-1.871.187,10.859,10.859,0,0,1-6.71-2.406,12.212,12.212,0,0,1-4.224-6.5c-1.6-6.015,1.417-12.11,6.737-13.981m2.433-3.876a12.258,12.258,0,0,0-2.566.428c-7.592,2.032-11.976,10.212-9.811,18.285A14.963,14.963,0,0,0,106.553,190.6a14.1,14.1,0,0,0,3.475-.454,14.694,14.694,0,0,0,2.433-.909l-7.7-28.738Z" transform="translate(71.366 -95.44)"/>
  </g>
</svg>
