<svg xmlns="http://www.w3.org/2000/svg" xmlns:xlink="http://www.w3.org/1999/xlink" viewBox="0 0 117.945 117.945"><defs><style>.a{opacity:0.39;}.b{fill:none;}.c{fill:#fff;}.d{filter:url(#a);}</style><filter id="a" x="0" y="0" width="117.945" height="117.945" filterUnits="userSpaceOnUse"><feOffset input="SourceAlpha"/><feGaussianBlur stdDeviation="13.5" result="b"/><feFlood flood-opacity="0.271"/><feComposite operator="in" in2="b"/><feComposite in="SourceGraphic"/></filter></defs><g class="a" transform="translate(-130.5 -485.5)"><rect class="b" width="24" height="24" transform="translate(165 539)"/><g class="d" transform="matrix(1, 0, 0, 1, 130.5, 485.5)"><path class="c" d="M35.574,35.926a5.207,5.207,0,0,1-9.852,0H4.259a1.759,1.759,0,1,1,0-3.519H25.722a5.207,5.207,0,0,1,9.852,0h2.111a1.759,1.759,0,0,1,0,3.519Zm-6.685-1.759a1.759,1.759,0,1,0,1.759-1.759,1.662,1.662,0,0,0-1.759,1.759ZM25.9,9.537a5.207,5.207,0,0,1-9.852,0H4.259A1.662,1.662,0,0,1,2.5,7.778,1.662,1.662,0,0,1,4.259,6.019H16.046a5.207,5.207,0,0,1,9.852,0H37.685a1.662,1.662,0,0,1,1.759,1.759,1.662,1.662,0,0,1-1.759,1.759ZM19.213,7.778a1.759,1.759,0,1,0,3.519,0,1.759,1.759,0,1,0-3.519,0ZM37.685,22.732H16.222A5.125,5.125,0,0,1,11.3,26.25,5.125,5.125,0,0,1,6.37,22.732H4.259a1.759,1.759,0,1,1,0-3.519H6.37A5.125,5.125,0,0,1,11.3,15.695a5.125,5.125,0,0,1,4.926,3.519H37.685a1.759,1.759,0,0,1,0,3.519ZM9.537,20.972A1.662,1.662,0,0,0,11.3,22.732a1.759,1.759,0,0,0,0-3.519,1.662,1.662,0,0,0-1.759,1.759Z" transform="translate(38 38)"/></g></g></svg>
