<svg xmlns="http://www.w3.org/2000/svg" viewBox="0 0 50.016 47.636"><defs><style>.a{opacity:0.49;}.b{fill:#fff;}</style></defs><g class="a"><path class="b" d="M309.528,8.6l2.937,9.057a4.5,4.5,0,0,0,4.282,3.108h9.531l-7.712,5.59a4.488,4.488,0,0,0-1.63,5.021l2.937,9.057-7.712-5.59a4.432,4.432,0,0,0-2.653-.853,4.563,4.563,0,0,0-2.653.853l-7.712,5.59,2.937-9.057a4.478,4.478,0,0,0-1.63-5.021l-7.712-5.59h9.531a4.5,4.5,0,0,0,4.282-3.108L309.528,8.6m0-8.6a1.076,1.076,0,0,0-1.042.758l-5.154,15.86a1.1,1.1,0,0,1-1.042.758H285.615a1.089,1.089,0,0,0-.644,1.971l13.491,9.8a1.088,1.088,0,0,1,.4,1.213l-5.154,15.86a1.094,1.094,0,0,0,1.686,1.213l13.491-9.8a1.1,1.1,0,0,1,1.288,0l13.491,9.8a1.046,1.046,0,0,0,.644.208,1.089,1.089,0,0,0,1.042-1.421L320.2,30.355a1.07,1.07,0,0,1,.4-1.213l13.491-9.8a1.089,1.089,0,0,0-.644-1.971H316.766a1.1,1.1,0,0,1-1.042-.758L310.551.758A1.038,1.038,0,0,0,309.528,0Z" transform="translate(-284.52 0)"/></g></svg>