<?xml version="1.0" encoding="utf-8"?>
<!-- Generator: Adobe Illustrator 21.1.0, SVG Export Plug-In . SVG Version: 6.00 Build 0)  -->
<svg version="1.1" xmlns="http://www.w3.org/2000/svg" xmlns:xlink="http://www.w3.org/1999/xlink" x="0px" y="0px"
	 viewBox="0 0 204.3 95.5" style="enable-background:new 0 0 204.3 95.5;" xml:space="preserve">
<style type="text/css">
	.st0{display:none;}
	.st1{display:inline;}
	.st2{fill:#FFFFFF;}
</style>
<g id="Camada_2" class="st0">
	<rect x="-2" y="-2.6" class="st1" width="208.5" height="98.1"/>
</g>
<g id="ranking">
	<path id="Path_1067" class="st2" d="M102.6,0.3l3.4,7c0.1,0.2,0.2,0.3,0.4,0.3l7.7,1.1c0.3,0,0.5,0.3,0.5,0.6
		c0,0.1-0.1,0.2-0.2,0.3l-5.6,5.4c-0.1,0.1-0.2,0.3-0.2,0.5l1.3,7.7c0.1,0.3-0.1,0.6-0.4,0.7c-0.1,0-0.2,0-0.4-0.1l-6.9-3.6
		c-0.2-0.1-0.3-0.1-0.5,0l-6.9,3.6c-0.3,0.1-0.6,0-0.8-0.2c-0.1-0.1-0.1-0.2-0.1-0.4l1.3-7.7c0-0.2,0-0.4-0.2-0.5l-5.6-5.4
		c-0.2-0.2-0.2-0.6,0-0.8c0.1-0.1,0.2-0.1,0.3-0.2l7.7-1.1c0.2,0,0.3-0.1,0.4-0.3l3.4-6.9c0.1-0.3,0.4-0.4,0.7-0.3
		C102.5,0.1,102.6,0.2,102.6,0.3z"/>
	<rect id="Rectangle_1549" x="80.9" y="31.9" class="st2" width="42.6" height="4.1"/>
	<rect id="Rectangle_1551" x="119.3" y="31.9" class="st2" width="4.1" height="44.5"/>
	<rect id="Rectangle_1552" x="80.9" y="31.9" class="st2" width="4.1" height="30.5"/>
	<rect id="Rectangle_1549_1_" x="41.5" y="58.2" class="st2" width="42.6" height="4.1"/>
	<rect id="Rectangle_1549_2_" x="120.2" y="72.2" class="st2" width="42.6" height="4.1"/>
	<rect id="Rectangle_1551_1_" x="158.6" y="72.3" class="st2" width="4.1" height="23.7"/>
	<rect id="Rectangle_1551_3_" x="41.5" y="58.2" class="st2" width="4.1" height="37.7"/>
</g>
</svg>
