<svg xmlns="http://www.w3.org/2000/svg" viewBox="0 0 42.65 33.928">
  <defs>
    <style>
      .cls-1 {
        fill: #fff;
      }
    </style>
  </defs>
  <g id="Group_1256" data-name="Group 1256" transform="translate(-0.031)">
    <path id="Path_1031" data-name="Path 1031" class="cls-1" d="M81.987,111.687l3.324,12.387-12.4,3.324L69.6,115.011l12.387-3.324m1.156-1.987L67.6,113.855l4.168,15.529L87.3,125.216,83.142,109.7Z" transform="translate(-58.795 -95.456)"/>
    <path id="Path_1032" data-name="Path 1032" class="cls-1" d="M52.587,1.987l3.324,12.387L43.524,17.7,40.2,5.311,52.587,1.987M53.742,0,38.2,4.168,42.368,19.7,57.9,15.529,53.742,0Z" transform="translate(-33.213)"/>
    <path id="Path_1033" data-name="Path 1033" class="cls-1" d="M191.274,82.387,194.6,94.774,182.211,98.1l-3.324-12.387,12.387-3.324m1.156-1.987L176.9,84.568l4.168,15.529,15.516-4.168L192.429,80.4Z" transform="translate(-153.903 -69.96)"/>
    <path id="Path_1034" data-name="Path 1034" class="cls-1" d="M5.13,32.183,8.077,43.207a5.391,5.391,0,0,1-.909.091,5.275,5.275,0,0,1-3.259-1.169,5.931,5.931,0,0,1-2.052-3.155A5.58,5.58,0,0,1,5.13,32.183M6.312,30.3a5.954,5.954,0,0,0-1.247.208A7.127,7.127,0,0,0,.3,39.389a7.268,7.268,0,0,0,6.882,5.531A6.847,6.847,0,0,0,8.87,44.7a7.137,7.137,0,0,0,1.182-.441L6.312,30.3Z" transform="translate(0 -26.366)"/>
  </g>
</svg>
