<svg xmlns="http://www.w3.org/2000/svg" xmlns:xlink="http://www.w3.org/1999/xlink" viewBox="0 0 174.56 166.25"><defs><style>.cls-1{fill:url(#Gradiente_sem_nome_10);}</style><linearGradient id="Gradiente_sem_nome_10" y1="83.13" x2="174.56" y2="83.13" gradientUnits="userSpaceOnUse"><stop offset="0" stop-color="#ffcd6a"/><stop offset="1" stop-color="#ffba37"/></linearGradient></defs><title>gold-star</title><g id="Camada_2" data-name="Camada 2"><g id="Camada_1-2" data-name="Camada 1"><path class="cls-1" d="M89.43,1.34l25.12,50.89a2.4,2.4,0,0,0,1.8,1.31l56.16,8.16a2.4,2.4,0,0,1,1.33,4.09L133.2,105.39a2.4,2.4,0,0,0-.69,2.12l9.59,55.93a2.4,2.4,0,0,1-3.48,2.53L88.39,139.56a2.4,2.4,0,0,0-2.23,0L35.93,166a2.4,2.4,0,0,1-3.48-2.53l9.59-55.93a2.4,2.4,0,0,0-.69-2.12L.73,65.78A2.4,2.4,0,0,1,2.05,61.7l56.16-8.16A2.4,2.4,0,0,0,60,52.22L85.13,1.34A2.4,2.4,0,0,1,89.43,1.34Z"/></g></g></svg>