<?xml version="1.0" encoding="utf-8"?>
<!-- Generator: Adobe Illustrator 21.1.0, SVG Export Plug-In . SVG Version: 6.00 Build 0)  -->
<svg version="1.1" id="Camada_1" xmlns="http://www.w3.org/2000/svg" xmlns:xlink="http://www.w3.org/1999/xlink" x="0px" y="0px"
	 viewBox="0 0 174.6 166.3" style="enable-background:new 0 0 174.6 166.3;" xml:space="preserve">
<style type="text/css">
	.st0{fill:url(#SVGID_1_);}
</style>
<title>gold-star</title>
<g id="Camada_2">
	<g id="Camada_1-2">
		
			<linearGradient id="SVGID_1_" gradientUnits="userSpaceOnUse" x1="1.597456e-02" y1="84.8596" x2="174.5619" y2="84.8596" gradientTransform="matrix(1 0 0 -1 0 168)">
			<stop  offset="0" style="stop-color:#AFAFAF"/>
			<stop  offset="1" style="stop-color:#666666"/>
		</linearGradient>
		<path class="st0" d="M89.4,1.3l25.1,50.9c0.3,0.7,1,1.2,1.8,1.3l56.2,8.2c1.3,0.2,2.2,1.4,2,2.7c-0.1,0.5-0.3,1-0.7,1.4
			l-40.6,39.6c-0.6,0.6-0.8,1.3-0.7,2.1l9.6,55.9c0.2,1.3-0.7,2.5-2,2.8c-0.5,0.1-1.1,0-1.5-0.2l-50.2-26.4c-0.7-0.4-1.5-0.4-2.2,0
			L35.9,166c-1.2,0.6-2.6,0.2-3.2-1c-0.2-0.5-0.3-1-0.2-1.5l9.6-55.9c0.1-0.8-0.1-1.6-0.7-2.1L0.7,65.8c-0.9-0.9-1-2.5,0-3.4
			C1.1,62,1.5,61.8,2,61.7l56.2-8.2c0.8-0.1,1.4-0.6,1.8-1.3L85.1,1.3c0.6-1.2,2-1.7,3.2-1.1C88.8,0.5,89.2,0.9,89.4,1.3z"/>
	</g>
</g>
</svg>
